<svg width="38" height="38" viewBox="0 0 38 38" fill="none" xmlns="http://www.w3.org/2000/svg">
<g id="devicon:behance" clip-path="url(#clip0_238_270)">
<path id="Vector" d="M33.0273 0.641602H4.97264C2.58047 0.641602 0.641235 2.58084 0.641235 4.97301V33.0247C0.641235 35.4169 2.58047 37.3561 4.97264 37.3561H33.0273C35.4195 37.3561 37.3587 35.4169 37.3587 33.0247V4.97301C37.3587 2.58084 35.4195 0.641602 33.0273 0.641602Z" fill="url(#paint0_linear_238_270)"/>
<path id="Vector_2" d="M15.6245 17.8952C15.6245 17.8952 18.7417 17.6636 18.7417 14.0091C18.7417 10.3545 16.1916 8.57031 12.9616 8.57031H2.33344V28.9953H12.9616C12.9616 28.9953 19.4483 29.2001 19.4483 22.9658C19.4483 22.9658 19.7333 17.8952 15.6245 17.8952ZM7.01515 12.2011H12.9527C12.9527 12.2011 14.3984 12.2011 14.3984 14.3267C14.3984 16.4523 13.5494 16.7611 12.5845 16.7611H7.01812L7.01515 12.2011ZM12.6855 25.3645H7.01812V19.908H12.9556C12.9556 19.908 15.108 19.8783 15.108 22.7134C15.1139 25.0736 13.5405 25.3408 12.6884 25.3645H12.6855ZM28.1022 13.7686C20.2469 13.7686 20.2558 21.615 20.2558 21.615C20.2558 21.615 19.7155 29.4228 28.1022 29.4228C28.1022 29.4228 35.0906 29.8206 35.0906 23.993H31.4984C31.4984 23.993 31.6172 26.1898 28.2328 26.1898C28.2328 26.1898 24.6377 26.4303 24.6377 22.6273H35.2213C35.2213 22.6273 36.3702 13.7686 28.1022 13.7686ZM31.2966 19.908H24.5872C24.5872 19.908 25.0266 16.7611 28.1823 16.7611C31.3381 16.7611 31.2966 19.908 31.2966 19.908ZM23.7084 9.77562H32.1338V12.2902H23.7084V9.77562Z" fill="white"/>
</g>
<defs>
<linearGradient id="paint0_linear_238_270" x1="19" y1="0.641602" x2="19" y2="37.3591" gradientUnits="userSpaceOnUse">
<stop stop-color="#005CFF"/>
<stop offset="1" stop-color="#0047AD"/>
</linearGradient>
<clipPath id="clip0_238_270">
<rect width="38" height="38" fill="white"/>
</clipPath>
</defs>
</svg>
