<svg width="38" height="38" viewBox="0 0 38 38" fill="none" xmlns="http://www.w3.org/2000/svg">
<g id="devicon:linkedin" clip-path="url(#clip0_238_273)">
<path id="Vector" d="M34.4375 0.890762H3.5625C2.86197 0.883633 2.18722 1.1547 1.68631 1.64448C1.18539 2.13426 0.899238 2.80275 0.890625 3.50326V34.503C0.900795 35.2024 1.18764 35.8694 1.68838 36.3579C2.18912 36.8464 2.86298 37.1167 3.5625 37.1095H34.4375C35.1381 37.1151 35.8124 36.8431 36.313 36.353C36.8137 35.8629 37.1 35.1946 37.1094 34.494V3.49436C37.0969 2.79589 36.8092 2.13059 36.3089 1.64306C35.8086 1.15553 35.1361 0.885174 34.4375 0.890762Z" fill="#0076B2"/>
<path id="Vector_2" d="M6.25218 14.4668H11.6286V31.7657H6.25218V14.4668ZM8.94187 5.85742C9.55851 5.85742 10.1613 6.04032 10.674 6.38297C11.1867 6.72562 11.5862 7.21264 11.8221 7.7824C12.0579 8.35216 12.1195 8.97908 11.9989 9.58383C11.8784 10.1886 11.5812 10.744 11.145 11.1798C10.7088 11.6157 10.153 11.9123 9.54818 12.0323C8.94331 12.1522 8.31645 12.09 7.74691 11.8537C7.17737 11.6173 6.69074 11.2173 6.34857 10.7043C6.00641 10.1913 5.82409 9.58829 5.82468 8.97164C5.82546 8.14543 6.15423 7.35332 6.73873 6.76938C7.32323 6.18543 8.11565 5.85742 8.94187 5.85742ZM15.0011 14.4668H20.1548V16.8418H20.2261C20.9445 15.4821 22.6961 14.0482 25.3116 14.0482C30.7562 14.0363 31.7656 17.6196 31.7656 22.2657V31.7657H26.3892V23.3493C26.3892 21.3454 26.3536 18.7655 23.5956 18.7655C20.8376 18.7655 20.3686 20.9505 20.3686 23.2187V31.7657H15.0011V14.4668Z" fill="white"/>
</g>
<defs>
<clipPath id="clip0_238_273">
<rect width="38" height="38" fill="white"/>
</clipPath>
</defs>
</svg>
