<svg xmlns="http://www.w3.org/2000/svg" width="351.991" height="103.426" viewBox="0 0 351.991 103.426">
  <defs>
    <style>
      .cls-1 {
        fill: #e4213b;
        stroke: rgba(0,0,0,0);
      }
    </style>
  </defs>
  <path id="nav-fab-Logo" class="cls-1" d="M.007,101.115Q-.006,94.786,0,88.457v-65.7c.212-.111.422-.227.635-.334Q22.279,11.459,43.92.5c.276-.139.527-.33.788-.5a2.919,2.919,0,0,1,.154.642q.011,10.816.006,21.633a4.394,4.394,0,0,0-.591.2q-9.609,4.809-19.209,9.632A10.952,10.952,0,0,0,23.3,33.2,10.74,10.74,0,0,0,19.1,42.192q0,23.5.014,47a1.35,1.35,0,0,1-.749,1.326Q9.58,95.85.828,101.236a6.83,6.83,0,0,0-.668.521A2.771,2.771,0,0,1,.007,101.115Zm25.81-15.867q0-16.818-.017-33.637a1.092,1.092,0,0,1,.706-1.147q8.608-4.32,17.194-8.687c.232-.118.472-.222.832-.392,0,3.47.013,6.806-.026,10.142,0,.244-.321.578-.577.709q-3.661,1.881-7.357,3.7a4.619,4.619,0,0,0-2.786,4.537c.029,6.674.005,13.349.021,20.022a1.143,1.143,0,0,1-.619,1.15c-2.423,1.442-4.819,2.93-7.323,4.462C25.843,85.748,25.817,85.5,25.817,85.248ZM323.206,48.581V48.5a13.894,13.894,0,0,1,27.785-.076V48.5a13.894,13.894,0,0,1-27.785.076Zm4.9-.153V48.5c0,5.162,3.757,9.452,9.033,9.452s8.959-4.214,8.959-9.375V48.5c0-5.162-3.758-9.452-9.034-9.452S328.1,43.267,328.1,48.428ZM297.892,61.79V39.547h-8.427V35.22h21.56v4.327H302.6V61.79Zm-27.136,0L256.1,42.887v18.9h-4.593V35.22h4.327l14.234,18.372V35.22h4.593V61.79Zm-54.541,0V35.22h19.7v4.175H220.883V46.3h13.324v4.175H220.883v7.136h15.222V61.79Zm-20.265,0-6.529-9.261h-5.846V61.79h-4.669V35.22h11.842a10.7,10.7,0,0,1,7.668,2.658,8.031,8.031,0,0,1,2.2,5.731v.076c0,4.365-2.619,6.984-6.34,8.046l7.175,10.059Zm-12.374-13.4h6.833c3.339,0,5.465-1.747,5.465-4.441v-.076c0-2.848-2.049-4.4-5.5-4.4h-6.794Zm-41.939,13.4V35.22h11.918c3.038,0,5.428.834,6.948,2.353a5.955,5.955,0,0,1,1.782,4.4v.076a6.326,6.326,0,0,1-3.794,5.921c3.112,1.064,5.275,2.848,5.275,6.453V54.5c0,4.745-3.909,7.287-9.831,7.287Zm4.593-4.136h7.744c3.189,0,5.125-1.254,5.125-3.644v-.076c0-2.239-1.785-3.568-5.467-3.568h-7.4Zm0-11.236h6.376c3,0,5.011-1.177,5.011-3.607v-.075c0-2.088-1.67-3.379-4.669-3.379h-6.718ZM122.283,61.79l-2.7-6.415H107.024l-2.732,6.415H99.508L111.2,35.03h4.327l11.69,26.76ZM108.732,51.237h9.148L113.287,40.61ZM70.056,61.79V35.22H89.832V39.47H74.725v7.25h13.4v4.252h-13.4V61.79Z" transform="translate(0.5 0.795)"/>
</svg>
