<svg width="16" height="16" viewBox="0 0 16 16" fill="none" xmlns="http://www.w3.org/2000/svg">
<path d="M3.39414 12.417L3.49308 12.4074L3.39414 12.417C3.45635 13.0602 3.75592 13.6573 4.23442 14.0917C4.71293 14.5261 5.33607 14.7667 5.98234 14.7667H10.017C10.017 14.7667 10.017 14.7667 10.017 14.7667C10.6634 14.7669 11.2867 14.5264 11.7653 14.0919C12.244 13.6575 12.5437 13.0604 12.6059 12.417L13.3684 4.52372C13.3734 4.47245 13.4164 4.43333 13.468 4.43333H14.1663C14.3255 4.43333 14.4781 4.37012 14.5906 4.2576C14.7031 4.14508 14.7663 3.99246 14.7663 3.83333C14.7663 3.6742 14.7031 3.52159 14.5906 3.40907C14.4781 3.29655 14.3255 3.23333 14.1663 3.23333H10.533C10.4797 3.23333 10.4296 3.18878 10.4241 3.12502C10.4028 2.87685 10.3434 2.63301 10.2478 2.40214C10.1255 2.10691 9.94626 1.83866 9.7203 1.61271C9.49435 1.38675 9.2261 1.20751 8.93087 1.08523C8.63565 0.96294 8.31922 0.9 7.99967 0.9C7.68012 0.9 7.3637 0.96294 7.06848 1.08523C6.77325 1.20751 6.505 1.38675 6.27905 1.61271C6.05309 1.83866 5.87385 2.10691 5.75157 2.40214C5.65594 2.63301 5.5966 2.87685 5.57527 3.12502C5.5698 3.18878 5.51961 3.23333 5.46634 3.23333H1.83301C1.67388 3.23333 1.52127 3.29655 1.40874 3.40907C1.29622 3.52159 1.23301 3.6742 1.23301 3.83333C1.23301 3.99246 1.29622 4.14508 1.40874 4.2576C1.52127 4.37012 1.67388 4.43333 1.83301 4.43333H2.53141C2.58291 4.43333 2.62599 4.47245 2.63095 4.52371L3.39414 12.417ZM5.98234 13.5667H5.98232C5.63434 13.5667 5.2988 13.4372 5.04113 13.2034C4.78345 12.9695 4.6221 12.648 4.58854 12.3017L3.83776 4.54297C3.83207 4.48421 3.87826 4.43333 3.9373 4.43333H12.0621C12.1211 4.43333 12.1673 4.48421 12.1616 4.54297L11.4108 12.3017C11.3772 12.648 11.2159 12.9695 10.9582 13.2034C10.7005 13.4372 10.365 13.5667 10.017 13.5667H10.017H5.98234ZM9.13301 3.23333H6.86634C6.80627 3.23333 6.77437 3.18753 6.78019 3.14902C6.81931 2.89013 6.94018 2.64863 7.12758 2.46123C7.35887 2.22994 7.67257 2.1 7.99967 2.1C8.32678 2.1 8.64048 2.22994 8.87177 2.46123C9.05917 2.64863 9.18004 2.89013 9.21916 3.14902C9.22498 3.18753 9.19308 3.23333 9.13301 3.23333Z" fill="#4CAF50" stroke="#4CAF50" stroke-width="0.2"/>
<path d="M5.07071 9.21213L5.31674 9.45817C5.43383 9.57525 5.62363 9.57533 5.74082 9.45836L7.35435 7.84771C7.41738 7.7848 7.525 7.82944 7.525 7.91848V11.8C7.525 11.9657 7.65931 12.1 7.825 12.1H8.175C8.34069 12.1 8.475 11.9657 8.475 11.8V7.9197C8.475 7.83057 8.5828 7.78597 8.64577 7.84906L10.2553 9.46147C10.3724 9.57881 10.5625 9.57889 10.6798 9.46166L10.9293 9.21213C11.0464 9.09497 11.0464 8.90503 10.9293 8.78787L8.21213 6.07071C8.09497 5.95355 7.90503 5.95355 7.78787 6.07071L5.07071 8.78787C4.95355 8.90503 4.95355 9.09497 5.07071 9.21213Z" fill="#4CAF50" stroke="#4CAF50" stroke-width="0.2"/>
</svg>
